<svg class="interface-icon o__standard o__standard__attachment" width="16" height="16" viewBox="0 0 16 16" xmlns="http://www.w3.org/2000/svg"><path fill-rule="evenodd" clip-rule="evenodd" d="M7.66963 2.50677C8.00157 2.83871 8.00158 3.3769 7.66963 3.70885L3.52382 7.85471C3.07054 8.31802 2.81803 8.94134 2.82112 9.58962C2.82422 10.2391 3.08362 10.8611 3.54293 11.3204C4.00226 11.7796 4.62433 12.0389 5.27383 12.0418C5.92213 12.0448 6.54545 11.7921 7.00866 11.3387L12.9336 5.41283C13.0903 5.25619 13.1785 5.04354 13.1786 4.82199C13.1786 4.60046 13.0906 4.38795 12.934 4.23123C12.7773 4.07453 12.5649 3.98647 12.3433 3.98642C12.1218 3.98638 11.9093 4.07431 11.7526 4.23086V4.23086L5.871 10.1125C5.53905 10.4444 5.00086 10.4444 4.66892 10.1125C4.33697 9.78055 4.33697 9.24236 4.66892 8.91041L10.5506 3.02877C11.0261 2.55339 11.6713 2.28628 12.3437 2.28642C13.0161 2.28656 13.6609 2.55383 14.1363 3.0294C14.6117 3.50496 14.8787 4.14989 14.8786 4.82235C14.8784 5.4947 14.6112 6.13945 14.1357 6.61481L8.20225 12.5493C7.41898 13.3183 6.3637 13.7468 5.26609 13.7418C4.16846 13.7368 3.11721 13.2986 2.34098 12.5226C1.56474 11.7465 1.12638 10.6953 1.12114 9.59772C1.11591 8.5001 1.54426 7.4448 2.31306 6.66136L2.31867 6.65564L6.46755 2.50678C6.79949 2.17483 7.33768 2.17482 7.66963 2.50677Z"></path></svg>