<svg class="interface-icon o__standard o__standard__custom-data" width="16" height="16" viewBox="0 0 16 16" xmlns="http://www.w3.org/2000/svg"><path d="M4.09163 3.75C3.86443 3.75 3.50693 3.82433 3.22778 4.02532C2.98687 4.19877 2.7583 4.49444 2.7583 5.08333V5.91667C2.7583 6.28386 2.67964 6.83073 2.44028 7.35376C2.34126 7.57013 2.20887 7.79381 2.03531 8C2.20887 8.20619 2.34126 8.42987 2.44028 8.64624C2.67964 9.16927 2.7583 9.71614 2.7583 10.0833V10.9167C2.7583 11.5056 2.98687 11.8012 3.22778 11.9747C3.50693 12.1757 3.86443 12.25 4.09163 12.25V13.75C3.62439 13.75 2.94023 13.616 2.35132 13.192C1.72417 12.7404 1.2583 11.9944 1.2583 10.9167V10.0833C1.2583 9.89497 1.21197 9.56684 1.07632 9.27043C0.944074 8.98145 0.762467 8.79196 0.52113 8.71151C0.214873 8.60943 0.00830078 8.32282 0.00830078 8C0.00830078 7.67718 0.214873 7.39057 0.52113 7.28849C0.762467 7.20804 0.944074 7.01855 1.07632 6.72957C1.21197 6.43316 1.2583 6.10503 1.2583 5.91667V5.08333C1.2583 4.00556 1.72417 3.25956 2.35132 2.80802C2.94023 2.384 3.62439 2.25 4.09163 2.25V3.75Z"></path><path d="M12.7671 4.02532C12.488 3.82433 12.1305 3.75 11.9033 3.75V2.25C12.3705 2.25 13.0547 2.384 13.6436 2.80802C14.2707 3.25956 14.7366 4.00556 14.7366 5.08333V5.91667C14.7366 6.10503 14.7829 6.43316 14.9186 6.72957C15.0508 7.01855 15.2324 7.20804 15.4738 7.28849C15.78 7.39057 15.9866 7.67718 15.9866 8C15.9866 8.32282 15.78 8.60943 15.4738 8.71151C15.2324 8.79196 15.0508 8.98145 14.9186 9.27043C14.7829 9.56684 14.7366 9.89497 14.7366 10.0833V10.9167C14.7366 11.9944 14.2707 12.7404 13.6436 13.192C13.0547 13.616 12.3705 13.75 11.9033 13.75V12.25C12.1305 12.25 12.488 12.1757 12.7671 11.9747C13.008 11.8012 13.2366 11.5056 13.2366 10.9167V10.0833C13.2366 9.71614 13.3153 9.16927 13.5546 8.64624C13.6536 8.42987 13.786 8.20619 13.9596 8C13.786 7.79381 13.6536 7.57013 13.5546 7.35376C13.3153 6.83073 13.2366 6.28386 13.2366 5.91667V5.08333C13.2366 4.49444 13.008 4.19877 12.7671 4.02532Z"></path><path d="M6.10009 9.25C6.79045 9.25 7.35009 8.69036 7.35009 8C7.35009 7.30964 6.79045 6.75 6.10009 6.75C5.40974 6.75 4.85009 7.30964 4.85009 8C4.85009 8.69036 5.40974 9.25 6.10009 9.25Z"></path><path d="M9.89978 9.25C10.5901 9.25 11.1498 8.69036 11.1498 8C11.1498 7.30964 10.5901 6.75 9.89978 6.75C9.20942 6.75 8.64978 7.30964 8.64978 8C8.64978 8.69036 9.20942 9.25 9.89978 9.25Z"></path></svg>