  <svg
                class="interface-icon o__standard o__standard__delete"
                width="16"
                height="16"
                viewBox="0 0 16 16"
                xmlns="http://www.w3.org/2000/svg"
              >
                <path d="M6.44856 10.7778C6.10985 11.1165 5.56067 11.1165 5.22195 10.7778C4.88323 10.4391 4.88323 9.88992 5.22195 9.5512L6.77329 7.99986L5.22199 6.44855C4.88327 6.10983 4.88327 5.56066 5.22199 5.22194C5.56071 4.88322 6.10988 4.88322 6.4486 5.22194L7.99991 6.77324L9.55118 5.22197C9.8899 4.88325 10.4391 4.88325 10.7778 5.22197C11.1165 5.56069 11.1165 6.10987 10.7778 6.44859L9.22652 7.99986L10.7778 9.55116C11.1165 9.88988 11.1165 10.4391 10.7778 10.7778C10.4391 11.1165 9.88993 11.1165 9.55121 10.7778L7.99991 9.22647L6.44856 10.7778Z"></path>
                <path
                  fill-rule="evenodd"
                  clip-rule="evenodd"
                  d="M8 15.5C3.85786 15.5 0.5 12.1421 0.5 8C0.5 3.85787 3.85786 0.5 8 0.5C12.1421 0.5 15.5 3.85787 15.5 8C15.5 12.1421 12.1421 15.5 8 15.5ZM2.23469 8C2.23469 11.1841 4.81591 13.7653 8 13.7653C11.1841 13.7653 13.7653 11.1841 13.7653 8C13.7653 4.81591 11.1841 2.23469 8 2.23469C4.81591 2.23469 2.23469 4.81591 2.23469 8Z"
                ></path>
              </svg>