<svg class="interface-icon o__standard o__standard__picture" width="16" height="16" viewBox="0 0 16 16" xmlns="http://www.w3.org/2000/svg"><path d="M11.2 6.1C11.2 6.70751 10.7075 7.2 10.1 7.2C9.49249 7.2 9 6.70751 9 6.1C9 5.49249 9.49249 5 10.1 5C10.7075 5 11.2 5.49249 11.2 6.1Z"></path><path fill-rule="evenodd" clip-rule="evenodd" d="M1 4C1 2.89543 1.89543 2 3 2H13C14.1046 2 15 2.89543 15 4V12C15 13.1046 14.1046 14 13 14H3C1.89543 14 1 13.1046 1 12V4ZM3 3.7H13C13.1657 3.7 13.3 3.83431 13.3 4V8.14576L10.9797 9.44951C10.3713 9.79137 9.62869 9.79137 9.02028 9.44951L6.97972 8.30293C6.37131 7.96107 5.6287 7.96107 5.02029 8.30293L2.7 9.60668V4C2.7 3.83431 2.83431 3.7 3 3.7Z"></path></svg>