<svg class="interface-icon o__standard o__standard__gif" width="16" height="16" viewBox="0 0 16 16" xmlns="http://www.w3.org/2000/svg"><path fill-rule="evenodd" clip-rule="evenodd" d="M2 2C0.895431 2 0 2.89543 0 4V12C0 13.1046 0.895431 14 2 14H14C15.1046 14 16 13.1046 16 12V4C16 2.89543 15.1046 2 14 2H2ZM6.6532 6.99512C6.63757 6.76074 6.58028 6.53678 6.48132 6.32324C6.38497 6.1097 6.24565 5.9196 6.06335 5.75293C5.88106 5.58366 5.6571 5.45085 5.39148 5.35449C5.12585 5.25814 4.81856 5.20996 4.4696 5.20996C3.96179 5.20996 3.5321 5.31283 3.18054 5.51855C2.82898 5.72428 2.56205 6.00944 2.37976 6.37402C2.19747 6.736 2.10632 7.15527 2.10632 7.63184V8.27246C2.10632 8.62142 2.1519 8.94564 2.24304 9.24512C2.33679 9.54199 2.48002 9.80241 2.67273 10.0264C2.86544 10.2477 3.11023 10.4209 3.4071 10.5459C3.70398 10.6709 4.05684 10.7334 4.4657 10.7334C4.84851 10.7334 5.17794 10.68 5.45398 10.5732C5.73263 10.4639 5.96049 10.3167 6.13757 10.1318C6.31726 9.94434 6.45007 9.7321 6.53601 9.49512C6.62195 9.25553 6.66492 9.00553 6.66492 8.74512V7.70605H4.52429V8.6084H5.45398V8.84277C5.45398 8.99121 5.41882 9.12923 5.34851 9.25684C5.2782 9.38444 5.17143 9.4873 5.0282 9.56543C4.88497 9.64355 4.70528 9.68262 4.48914 9.68262C4.22611 9.68262 4.01388 9.62142 3.85242 9.49902C3.69356 9.37402 3.57768 9.20475 3.50476 8.99121C3.43445 8.77767 3.39929 8.53678 3.39929 8.26855V7.64355C3.39929 7.20345 3.49044 6.86361 3.67273 6.62402C3.85502 6.38184 4.11674 6.26074 4.45789 6.26074C4.5933 6.26074 4.7144 6.27897 4.82117 6.31543C4.93054 6.35189 5.02559 6.40397 5.10632 6.47168C5.18705 6.53939 5.25216 6.61751 5.30164 6.70605C5.35111 6.7946 5.38497 6.89095 5.4032 6.99512H6.6532ZM8.98132 10.6357V5.30371H7.69617V10.6357H8.98132ZM11.5048 8.62402V10.6357H10.2196V5.30371H13.7704V6.33496H11.5048V7.62402H13.5634V8.62402H11.5048Z"></path></svg>