<svg class="interface-icon o__standard o__standard__lwr-happy" width="16" height="16" viewBox="0 0 16 16" xmlns="http://www.w3.org/2000/svg"><path fill-rule="evenodd" clip-rule="evenodd" d="M8 15C11.866 15 15 11.866 15 8C15 4.13401 11.866 1 8 1C4.13401 1 1 4.13401 1 8C1 11.866 4.13401 15 8 15ZM5.74986 7.43612C6.44021 7.43612 6.99986 6.87648 6.99986 6.18612C6.99986 5.49577 6.44021 4.93612 5.74986 4.93612C5.0595 4.93612 4.49986 5.49577 4.49986 6.18612C4.49986 6.87648 5.0595 7.43612 5.74986 7.43612ZM4.771 8.93624C4.44429 8.93624 4.2052 9.2461 4.33674 9.54516C4.95602 10.9531 6.3632 11.9362 8 11.9362C9.6368 11.9362 11.044 10.9531 11.6633 9.54516C11.7948 9.24609 11.5557 8.93624 11.229 8.93624H4.771ZM8.6602 6.41886C8.50496 6.69848 8.74439 7 9.06421 7H11.1588C11.4786 7 11.7181 6.69848 11.5628 6.41886C11.2559 5.86609 10.7206 5.5 10.1115 5.5C9.50243 5.5 8.96709 5.86609 8.6602 6.41886Z"></path></svg>